<mxfile host="app.diagrams.net" modified="2022-12-19T02:38:07.586Z" agent="5.0 (Windows NT 10.0; Win64; x64) AppleWebKit/537.36 (KHTML, like Gecko) Chrome/107.0.0.0 Safari/537.36" etag="wSlT54RhiqDvVS_puyQy" version="20.7.4" type="github">
  <diagram id="UwROIdByV1z2m9KlbQys" name="第 1 页">
    <mxGraphModel dx="1434" dy="764" grid="1" gridSize="10" guides="1" tooltips="1" connect="1" arrows="1" fold="1" page="1" pageScale="1" pageWidth="827" pageHeight="1169" math="0" shadow="0">
      <root>
        <mxCell id="0" />
        <mxCell id="1" parent="0" />
        <mxCell id="xb8STERn_sZ90LY28HoW-1" value="技术研发流程" style="swimlane;childLayout=stackLayout;resizeParent=1;resizeParentMax=0;startSize=30;horizontal=0;horizontalStack=1;" parent="1" vertex="1">
          <mxGeometry x="40" y="20" width="830" height="1200" as="geometry" />
        </mxCell>
        <mxCell id="xb8STERn_sZ90LY28HoW-6" value="产品经理" style="swimlane;startSize=30;" parent="xb8STERn_sZ90LY28HoW-1" vertex="1">
          <mxGeometry x="30" width="200" height="1200" as="geometry" />
        </mxCell>
        <mxCell id="hg6zbWp4ZJsZ5r2ovLSt-1" value="产品需求方案评审" style="shape=process;whiteSpace=wrap;html=1;backgroundOutline=1;" parent="xb8STERn_sZ90LY28HoW-6" vertex="1">
          <mxGeometry x="30" y="55" width="140" height="40" as="geometry" />
        </mxCell>
        <mxCell id="suGp4Ct0iNTHyCz29Ozv-38" style="edgeStyle=orthogonalEdgeStyle;rounded=0;orthogonalLoop=1;jettySize=auto;html=1;entryX=0.5;entryY=0;entryDx=0;entryDy=0;fontSize=10;startArrow=none;startFill=0;" parent="xb8STERn_sZ90LY28HoW-6" source="suGp4Ct0iNTHyCz29Ozv-34" target="suGp4Ct0iNTHyCz29Ozv-37" edge="1">
          <mxGeometry relative="1" as="geometry" />
        </mxCell>
        <mxCell id="suGp4Ct0iNTHyCz29Ozv-34" value="产品需求验收" style="rounded=0;whiteSpace=wrap;html=1;fillColor=none;" parent="xb8STERn_sZ90LY28HoW-6" vertex="1">
          <mxGeometry x="35" y="540" width="130" height="30" as="geometry" />
        </mxCell>
        <mxCell id="suGp4Ct0iNTHyCz29Ozv-37" value="&lt;span style=&quot;font-size: 10px&quot;&gt;产品验收通过&lt;/span&gt;" style="rhombus;whiteSpace=wrap;html=1;strokeColor=#808080;fillColor=none;" parent="xb8STERn_sZ90LY28HoW-6" vertex="1">
          <mxGeometry x="40" y="595" width="120" height="40" as="geometry" />
        </mxCell>
        <mxCell id="suGp4Ct0iNTHyCz29Ozv-43" value="&lt;p style=&quot;line-height: 1.5&quot;&gt;需UI&lt;br&gt;验收&lt;/p&gt;" style="text;html=1;strokeColor=none;fillColor=none;align=center;verticalAlign=middle;whiteSpace=wrap;rounded=0;fontSize=10;" parent="xb8STERn_sZ90LY28HoW-6" vertex="1">
          <mxGeometry x="100" y="643" width="40" height="20" as="geometry" />
        </mxCell>
        <mxCell id="suGp4Ct0iNTHyCz29Ozv-44" value="否" style="text;html=1;strokeColor=none;fillColor=none;align=center;verticalAlign=middle;whiteSpace=wrap;rounded=0;fontSize=10;" parent="xb8STERn_sZ90LY28HoW-6" vertex="1">
          <mxGeometry x="160" y="595" width="25" height="20" as="geometry" />
        </mxCell>
        <mxCell id="suGp4Ct0iNTHyCz29Ozv-71" value="&lt;p style=&quot;line-height: 1.5&quot;&gt;不需UI&lt;br&gt;验收&lt;/p&gt;" style="text;html=1;strokeColor=none;fillColor=none;align=center;verticalAlign=middle;whiteSpace=wrap;rounded=0;fontSize=10;" parent="xb8STERn_sZ90LY28HoW-6" vertex="1">
          <mxGeometry x="22" y="643" width="40" height="20" as="geometry" />
        </mxCell>
        <mxCell id="xb8STERn_sZ90LY28HoW-5" value="UI/UE设计师" style="swimlane;startSize=30;" parent="xb8STERn_sZ90LY28HoW-1" vertex="1">
          <mxGeometry x="230" width="200" height="1200" as="geometry" />
        </mxCell>
        <mxCell id="hg6zbWp4ZJsZ5r2ovLSt-145" style="edgeStyle=orthogonalEdgeStyle;rounded=0;orthogonalLoop=1;jettySize=auto;html=1;entryX=0.5;entryY=0;entryDx=0;entryDy=0;fontSize=10;" parent="xb8STERn_sZ90LY28HoW-5" edge="1">
          <mxGeometry relative="1" as="geometry">
            <mxPoint x="275" y="210" as="sourcePoint" />
          </mxGeometry>
        </mxCell>
        <mxCell id="suGp4Ct0iNTHyCz29Ozv-9" style="edgeStyle=orthogonalEdgeStyle;rounded=0;orthogonalLoop=1;jettySize=auto;html=1;entryX=0.5;entryY=0;entryDx=0;entryDy=0;" parent="xb8STERn_sZ90LY28HoW-5" source="suGp4Ct0iNTHyCz29Ozv-1" target="suGp4Ct0iNTHyCz29Ozv-8" edge="1">
          <mxGeometry relative="1" as="geometry" />
        </mxCell>
        <mxCell id="suGp4Ct0iNTHyCz29Ozv-1" value="UI/UE设计" style="rounded=0;whiteSpace=wrap;html=1;fillColor=none;" parent="xb8STERn_sZ90LY28HoW-5" vertex="1">
          <mxGeometry x="35" y="60" width="130" height="30" as="geometry" />
        </mxCell>
        <mxCell id="suGp4Ct0iNTHyCz29Ozv-8" value="UI评审" style="rounded=0;whiteSpace=wrap;html=1;fillColor=none;" parent="xb8STERn_sZ90LY28HoW-5" vertex="1">
          <mxGeometry x="35" y="120" width="130" height="30" as="geometry" />
        </mxCell>
        <mxCell id="suGp4Ct0iNTHyCz29Ozv-48" style="edgeStyle=orthogonalEdgeStyle;rounded=0;orthogonalLoop=1;jettySize=auto;html=1;entryX=0.5;entryY=0;entryDx=0;entryDy=0;fontSize=10;startArrow=none;startFill=0;" parent="xb8STERn_sZ90LY28HoW-5" source="suGp4Ct0iNTHyCz29Ozv-39" target="suGp4Ct0iNTHyCz29Ozv-47" edge="1">
          <mxGeometry relative="1" as="geometry" />
        </mxCell>
        <mxCell id="suGp4Ct0iNTHyCz29Ozv-39" value="UI验收" style="rounded=0;whiteSpace=wrap;html=1;fillColor=none;" parent="xb8STERn_sZ90LY28HoW-5" vertex="1">
          <mxGeometry x="35" y="660" width="130" height="30" as="geometry" />
        </mxCell>
        <mxCell id="suGp4Ct0iNTHyCz29Ozv-47" value="&lt;span style=&quot;font-size: 10px&quot;&gt;UI验收通过&lt;/span&gt;" style="rhombus;whiteSpace=wrap;html=1;strokeColor=#808080;fillColor=none;" parent="xb8STERn_sZ90LY28HoW-5" vertex="1">
          <mxGeometry x="40" y="715" width="120" height="40" as="geometry" />
        </mxCell>
        <mxCell id="suGp4Ct0iNTHyCz29Ozv-50" value="否" style="text;html=1;strokeColor=none;fillColor=none;align=center;verticalAlign=middle;whiteSpace=wrap;rounded=0;fontSize=10;" parent="xb8STERn_sZ90LY28HoW-5" vertex="1">
          <mxGeometry x="160" y="715" width="25" height="20" as="geometry" />
        </mxCell>
        <mxCell id="suGp4Ct0iNTHyCz29Ozv-51" value="是" style="text;html=1;strokeColor=none;fillColor=none;align=center;verticalAlign=middle;whiteSpace=wrap;rounded=0;fontSize=10;" parent="xb8STERn_sZ90LY28HoW-5" vertex="1">
          <mxGeometry x="100" y="755" width="25" height="20" as="geometry" />
        </mxCell>
        <mxCell id="xb8STERn_sZ90LY28HoW-2" value="Dev" style="swimlane;startSize=30;" parent="xb8STERn_sZ90LY28HoW-1" vertex="1">
          <mxGeometry x="430" width="200" height="1200" as="geometry" />
        </mxCell>
        <mxCell id="mgWLIkfOWvnB-S61e3QX-2" style="edgeStyle=orthogonalEdgeStyle;rounded=0;orthogonalLoop=1;jettySize=auto;html=1;exitX=0.5;exitY=1;exitDx=0;exitDy=0;" edge="1" parent="xb8STERn_sZ90LY28HoW-2" source="suGp4Ct0iNTHyCz29Ozv-7" target="hg6zbWp4ZJsZ5r2ovLSt-4">
          <mxGeometry relative="1" as="geometry" />
        </mxCell>
        <mxCell id="suGp4Ct0iNTHyCz29Ozv-7" value="制订技术方案" style="rounded=0;whiteSpace=wrap;html=1;fillColor=none;" parent="xb8STERn_sZ90LY28HoW-2" vertex="1">
          <mxGeometry x="35" y="180" width="130" height="30" as="geometry" />
        </mxCell>
        <mxCell id="suGp4Ct0iNTHyCz29Ozv-17" style="edgeStyle=orthogonalEdgeStyle;rounded=0;orthogonalLoop=1;jettySize=auto;html=1;entryX=1;entryY=0.5;entryDx=0;entryDy=0;exitX=1;exitY=0.5;exitDx=0;exitDy=0;" parent="xb8STERn_sZ90LY28HoW-2" source="hg6zbWp4ZJsZ5r2ovLSt-7" target="suGp4Ct0iNTHyCz29Ozv-7" edge="1">
          <mxGeometry relative="1" as="geometry">
            <Array as="points">
              <mxPoint x="190" y="373" />
              <mxPoint x="190" y="195" />
            </Array>
          </mxGeometry>
        </mxCell>
        <mxCell id="mgWLIkfOWvnB-S61e3QX-6" style="edgeStyle=orthogonalEdgeStyle;rounded=0;orthogonalLoop=1;jettySize=auto;html=1;exitX=0.5;exitY=1;exitDx=0;exitDy=0;" edge="1" parent="xb8STERn_sZ90LY28HoW-2" source="hg6zbWp4ZJsZ5r2ovLSt-7" target="suGp4Ct0iNTHyCz29Ozv-19">
          <mxGeometry relative="1" as="geometry" />
        </mxCell>
        <mxCell id="hg6zbWp4ZJsZ5r2ovLSt-7" value="&lt;span style=&quot;font-size: 10px&quot;&gt;评审通过&lt;/span&gt;" style="rhombus;whiteSpace=wrap;html=1;strokeColor=#808080;fillColor=none;" parent="xb8STERn_sZ90LY28HoW-2" vertex="1">
          <mxGeometry x="40" y="353" width="120" height="40" as="geometry" />
        </mxCell>
        <mxCell id="suGp4Ct0iNTHyCz29Ozv-18" value="否" style="text;html=1;strokeColor=none;fillColor=none;align=center;verticalAlign=middle;whiteSpace=wrap;rounded=0;fontSize=10;" parent="xb8STERn_sZ90LY28HoW-2" vertex="1">
          <mxGeometry x="164" y="353" width="25" height="20" as="geometry" />
        </mxCell>
        <mxCell id="suGp4Ct0iNTHyCz29Ozv-23" style="edgeStyle=orthogonalEdgeStyle;rounded=0;orthogonalLoop=1;jettySize=auto;html=1;entryX=0.5;entryY=0;entryDx=0;entryDy=0;" parent="xb8STERn_sZ90LY28HoW-2" source="suGp4Ct0iNTHyCz29Ozv-19" target="suGp4Ct0iNTHyCz29Ozv-20" edge="1">
          <mxGeometry relative="1" as="geometry" />
        </mxCell>
        <mxCell id="suGp4Ct0iNTHyCz29Ozv-19" value="正式编码开发" style="rounded=0;whiteSpace=wrap;html=1;fillColor=none;" parent="xb8STERn_sZ90LY28HoW-2" vertex="1">
          <mxGeometry x="35" y="420" width="130" height="30" as="geometry" />
        </mxCell>
        <mxCell id="suGp4Ct0iNTHyCz29Ozv-24" style="edgeStyle=orthogonalEdgeStyle;rounded=0;orthogonalLoop=1;jettySize=auto;html=1;entryX=0.5;entryY=0;entryDx=0;entryDy=0;" parent="xb8STERn_sZ90LY28HoW-2" source="suGp4Ct0iNTHyCz29Ozv-20" target="suGp4Ct0iNTHyCz29Ozv-21" edge="1">
          <mxGeometry relative="1" as="geometry" />
        </mxCell>
        <mxCell id="suGp4Ct0iNTHyCz29Ozv-20" value="单元测试（自测）" style="rounded=0;whiteSpace=wrap;html=1;fillColor=none;" parent="xb8STERn_sZ90LY28HoW-2" vertex="1">
          <mxGeometry x="35" y="480" width="130" height="30" as="geometry" />
        </mxCell>
        <mxCell id="suGp4Ct0iNTHyCz29Ozv-21" value="提交产品验收" style="rounded=0;whiteSpace=wrap;html=1;fillColor=none;" parent="xb8STERn_sZ90LY28HoW-2" vertex="1">
          <mxGeometry x="35" y="540" width="130" height="30" as="geometry" />
        </mxCell>
        <mxCell id="suGp4Ct0iNTHyCz29Ozv-29" value="解决Bug并重新提测" style="rounded=0;whiteSpace=wrap;html=1;fillColor=none;" parent="xb8STERn_sZ90LY28HoW-2" vertex="1">
          <mxGeometry x="30" y="870" width="130" height="30" as="geometry" />
        </mxCell>
        <mxCell id="suGp4Ct0iNTHyCz29Ozv-46" style="edgeStyle=orthogonalEdgeStyle;rounded=0;orthogonalLoop=1;jettySize=auto;html=1;entryX=0.5;entryY=1;entryDx=0;entryDy=0;fontSize=10;startArrow=none;startFill=0;" parent="xb8STERn_sZ90LY28HoW-2" source="suGp4Ct0iNTHyCz29Ozv-41" target="suGp4Ct0iNTHyCz29Ozv-21" edge="1">
          <mxGeometry relative="1" as="geometry" />
        </mxCell>
        <mxCell id="suGp4Ct0iNTHyCz29Ozv-41" value="需求问题修改" style="rounded=0;whiteSpace=wrap;html=1;fillColor=none;" parent="xb8STERn_sZ90LY28HoW-2" vertex="1">
          <mxGeometry x="35" y="600" width="130" height="30" as="geometry" />
        </mxCell>
        <mxCell id="suGp4Ct0iNTHyCz29Ozv-52" value="UI问题修改" style="rounded=0;whiteSpace=wrap;html=1;fillColor=none;" parent="xb8STERn_sZ90LY28HoW-2" vertex="1">
          <mxGeometry x="35" y="660" width="130" height="30" as="geometry" />
        </mxCell>
        <mxCell id="hg6zbWp4ZJsZ5r2ovLSt-4" value="数据库及程序结构设计" style="rounded=0;whiteSpace=wrap;html=1;fillColor=none;" parent="xb8STERn_sZ90LY28HoW-2" vertex="1">
          <mxGeometry x="35" y="240" width="130" height="30" as="geometry" />
        </mxCell>
        <mxCell id="mgWLIkfOWvnB-S61e3QX-5" style="edgeStyle=orthogonalEdgeStyle;rounded=0;orthogonalLoop=1;jettySize=auto;html=1;exitX=0.5;exitY=1;exitDx=0;exitDy=0;entryX=0.5;entryY=0;entryDx=0;entryDy=0;" edge="1" parent="xb8STERn_sZ90LY28HoW-2" source="suGp4Ct0iNTHyCz29Ozv-13" target="hg6zbWp4ZJsZ5r2ovLSt-7">
          <mxGeometry relative="1" as="geometry" />
        </mxCell>
        <mxCell id="suGp4Ct0iNTHyCz29Ozv-13" value="技术方案评审" style="rounded=0;whiteSpace=wrap;html=1;fillColor=none;" parent="xb8STERn_sZ90LY28HoW-2" vertex="1">
          <mxGeometry x="35" y="297" width="130" height="30" as="geometry" />
        </mxCell>
        <mxCell id="mgWLIkfOWvnB-S61e3QX-4" style="edgeStyle=orthogonalEdgeStyle;rounded=0;orthogonalLoop=1;jettySize=auto;html=1;exitX=0.5;exitY=1;exitDx=0;exitDy=0;entryX=0.5;entryY=0;entryDx=0;entryDy=0;" edge="1" parent="xb8STERn_sZ90LY28HoW-2" source="hg6zbWp4ZJsZ5r2ovLSt-4" target="suGp4Ct0iNTHyCz29Ozv-13">
          <mxGeometry relative="1" as="geometry" />
        </mxCell>
        <mxCell id="hg6zbWp4ZJsZ5r2ovLSt-13" value="是" style="text;html=1;strokeColor=none;fillColor=none;align=center;verticalAlign=middle;whiteSpace=wrap;rounded=0;fontSize=10;" parent="xb8STERn_sZ90LY28HoW-2" vertex="1">
          <mxGeometry x="75" y="394" width="25" height="20" as="geometry" />
        </mxCell>
        <mxCell id="mgWLIkfOWvnB-S61e3QX-23" value="冒烟测试（自测自改）" style="rounded=0;whiteSpace=wrap;html=1;fillColor=none;" vertex="1" parent="xb8STERn_sZ90LY28HoW-2">
          <mxGeometry x="35" y="760" width="130" height="30" as="geometry" />
        </mxCell>
        <mxCell id="suGp4Ct0iNTHyCz29Ozv-2" style="edgeStyle=orthogonalEdgeStyle;rounded=0;orthogonalLoop=1;jettySize=auto;html=1;entryX=0;entryY=0.5;entryDx=0;entryDy=0;" parent="xb8STERn_sZ90LY28HoW-1" source="hg6zbWp4ZJsZ5r2ovLSt-1" target="suGp4Ct0iNTHyCz29Ozv-1" edge="1">
          <mxGeometry relative="1" as="geometry" />
        </mxCell>
        <mxCell id="suGp4Ct0iNTHyCz29Ozv-11" style="edgeStyle=orthogonalEdgeStyle;rounded=0;orthogonalLoop=1;jettySize=auto;html=1;entryX=0;entryY=0.5;entryDx=0;entryDy=0;exitX=0.5;exitY=1;exitDx=0;exitDy=0;" parent="xb8STERn_sZ90LY28HoW-1" source="hg6zbWp4ZJsZ5r2ovLSt-1" target="suGp4Ct0iNTHyCz29Ozv-7" edge="1">
          <mxGeometry relative="1" as="geometry" />
        </mxCell>
        <mxCell id="suGp4Ct0iNTHyCz29Ozv-12" style="edgeStyle=orthogonalEdgeStyle;rounded=0;orthogonalLoop=1;jettySize=auto;html=1;entryX=0.5;entryY=0;entryDx=0;entryDy=0;" parent="xb8STERn_sZ90LY28HoW-1" source="suGp4Ct0iNTHyCz29Ozv-8" target="suGp4Ct0iNTHyCz29Ozv-7" edge="1">
          <mxGeometry relative="1" as="geometry" />
        </mxCell>
        <mxCell id="suGp4Ct0iNTHyCz29Ozv-32" style="edgeStyle=orthogonalEdgeStyle;rounded=0;orthogonalLoop=1;jettySize=auto;html=1;fontSize=10;" parent="xb8STERn_sZ90LY28HoW-1" source="suGp4Ct0iNTHyCz29Ozv-26" target="suGp4Ct0iNTHyCz29Ozv-29" edge="1">
          <mxGeometry relative="1" as="geometry" />
        </mxCell>
        <mxCell id="suGp4Ct0iNTHyCz29Ozv-36" style="edgeStyle=orthogonalEdgeStyle;rounded=0;orthogonalLoop=1;jettySize=auto;html=1;entryX=1;entryY=0.5;entryDx=0;entryDy=0;fontSize=10;startArrow=none;startFill=0;" parent="xb8STERn_sZ90LY28HoW-1" source="suGp4Ct0iNTHyCz29Ozv-21" target="suGp4Ct0iNTHyCz29Ozv-34" edge="1">
          <mxGeometry relative="1" as="geometry" />
        </mxCell>
        <mxCell id="suGp4Ct0iNTHyCz29Ozv-40" style="edgeStyle=orthogonalEdgeStyle;rounded=0;orthogonalLoop=1;jettySize=auto;html=1;entryX=0;entryY=0.5;entryDx=0;entryDy=0;fontSize=10;startArrow=none;startFill=0;exitX=0.5;exitY=1;exitDx=0;exitDy=0;" parent="xb8STERn_sZ90LY28HoW-1" source="suGp4Ct0iNTHyCz29Ozv-37" target="suGp4Ct0iNTHyCz29Ozv-39" edge="1">
          <mxGeometry relative="1" as="geometry" />
        </mxCell>
        <mxCell id="suGp4Ct0iNTHyCz29Ozv-42" style="edgeStyle=orthogonalEdgeStyle;rounded=0;orthogonalLoop=1;jettySize=auto;html=1;entryX=0;entryY=0.5;entryDx=0;entryDy=0;fontSize=10;startArrow=none;startFill=0;" parent="xb8STERn_sZ90LY28HoW-1" source="suGp4Ct0iNTHyCz29Ozv-37" target="suGp4Ct0iNTHyCz29Ozv-41" edge="1">
          <mxGeometry relative="1" as="geometry" />
        </mxCell>
        <mxCell id="suGp4Ct0iNTHyCz29Ozv-53" style="edgeStyle=orthogonalEdgeStyle;rounded=0;orthogonalLoop=1;jettySize=auto;html=1;entryX=1;entryY=0.5;entryDx=0;entryDy=0;fontSize=10;startArrow=none;startFill=0;" parent="xb8STERn_sZ90LY28HoW-1" source="suGp4Ct0iNTHyCz29Ozv-52" target="suGp4Ct0iNTHyCz29Ozv-39" edge="1">
          <mxGeometry relative="1" as="geometry" />
        </mxCell>
        <mxCell id="suGp4Ct0iNTHyCz29Ozv-54" style="edgeStyle=orthogonalEdgeStyle;rounded=0;orthogonalLoop=1;jettySize=auto;html=1;entryX=0.5;entryY=1;entryDx=0;entryDy=0;fontSize=10;startArrow=none;startFill=0;" parent="xb8STERn_sZ90LY28HoW-1" source="suGp4Ct0iNTHyCz29Ozv-47" target="suGp4Ct0iNTHyCz29Ozv-52" edge="1">
          <mxGeometry relative="1" as="geometry" />
        </mxCell>
        <mxCell id="suGp4Ct0iNTHyCz29Ozv-57" style="edgeStyle=orthogonalEdgeStyle;rounded=0;orthogonalLoop=1;jettySize=auto;html=1;entryX=0;entryY=0.5;entryDx=0;entryDy=0;fontSize=10;startArrow=none;startFill=0;exitX=0.5;exitY=1;exitDx=0;exitDy=0;" parent="xb8STERn_sZ90LY28HoW-1" source="suGp4Ct0iNTHyCz29Ozv-29" target="suGp4Ct0iNTHyCz29Ozv-28" edge="1">
          <mxGeometry relative="1" as="geometry" />
        </mxCell>
        <mxCell id="mgWLIkfOWvnB-S61e3QX-10" style="edgeStyle=orthogonalEdgeStyle;rounded=0;orthogonalLoop=1;jettySize=auto;html=1;exitX=0.5;exitY=1;exitDx=0;exitDy=0;entryX=0;entryY=0.5;entryDx=0;entryDy=0;" edge="1" parent="xb8STERn_sZ90LY28HoW-1" source="hg6zbWp4ZJsZ5r2ovLSt-1" target="mgWLIkfOWvnB-S61e3QX-8">
          <mxGeometry relative="1" as="geometry" />
        </mxCell>
        <mxCell id="mgWLIkfOWvnB-S61e3QX-25" style="edgeStyle=orthogonalEdgeStyle;rounded=0;orthogonalLoop=1;jettySize=auto;html=1;exitX=0;exitY=0;exitDx=0;exitDy=0;" edge="1" parent="xb8STERn_sZ90LY28HoW-1" source="suGp4Ct0iNTHyCz29Ozv-51" target="mgWLIkfOWvnB-S61e3QX-23">
          <mxGeometry relative="1" as="geometry">
            <Array as="points">
              <mxPoint x="330" y="775" />
            </Array>
          </mxGeometry>
        </mxCell>
        <mxCell id="xb8STERn_sZ90LY28HoW-8" value="QA" style="swimlane;startSize=30;" parent="xb8STERn_sZ90LY28HoW-1" vertex="1">
          <mxGeometry x="630" width="200" height="1200" as="geometry" />
        </mxCell>
        <mxCell id="suGp4Ct0iNTHyCz29Ozv-27" style="edgeStyle=orthogonalEdgeStyle;rounded=0;orthogonalLoop=1;jettySize=auto;html=1;entryX=0.5;entryY=0;entryDx=0;entryDy=0;fontSize=10;" parent="xb8STERn_sZ90LY28HoW-8" source="hg6zbWp4ZJsZ5r2ovLSt-36" target="suGp4Ct0iNTHyCz29Ozv-26" edge="1">
          <mxGeometry relative="1" as="geometry" />
        </mxCell>
        <mxCell id="hg6zbWp4ZJsZ5r2ovLSt-36" value="全量用例测试" style="rounded=0;whiteSpace=wrap;html=1;fillColor=none;" parent="xb8STERn_sZ90LY28HoW-8" vertex="1">
          <mxGeometry x="35" y="820" width="130" height="30" as="geometry" />
        </mxCell>
        <mxCell id="suGp4Ct0iNTHyCz29Ozv-26" value="反馈Bug" style="rounded=0;whiteSpace=wrap;html=1;fillColor=none;" parent="xb8STERn_sZ90LY28HoW-8" vertex="1">
          <mxGeometry x="35" y="870" width="130" height="30" as="geometry" />
        </mxCell>
        <mxCell id="suGp4Ct0iNTHyCz29Ozv-64" style="edgeStyle=orthogonalEdgeStyle;rounded=0;orthogonalLoop=1;jettySize=auto;html=1;entryX=0.5;entryY=0;entryDx=0;entryDy=0;fontSize=10;startArrow=none;startFill=0;" parent="xb8STERn_sZ90LY28HoW-8" source="suGp4Ct0iNTHyCz29Ozv-28" target="suGp4Ct0iNTHyCz29Ozv-61" edge="1">
          <mxGeometry relative="1" as="geometry" />
        </mxCell>
        <mxCell id="suGp4Ct0iNTHyCz29Ozv-28" value="回归测试" style="rounded=0;whiteSpace=wrap;html=1;fillColor=none;" parent="xb8STERn_sZ90LY28HoW-8" vertex="1">
          <mxGeometry x="35" y="920" width="130" height="30" as="geometry" />
        </mxCell>
        <mxCell id="suGp4Ct0iNTHyCz29Ozv-67" style="edgeStyle=orthogonalEdgeStyle;rounded=0;orthogonalLoop=1;jettySize=auto;html=1;entryX=0.5;entryY=0;entryDx=0;entryDy=0;fontSize=10;startArrow=none;startFill=0;" parent="xb8STERn_sZ90LY28HoW-8" source="suGp4Ct0iNTHyCz29Ozv-59" target="suGp4Ct0iNTHyCz29Ozv-66" edge="1">
          <mxGeometry relative="1" as="geometry" />
        </mxCell>
        <mxCell id="suGp4Ct0iNTHyCz29Ozv-59" value="合并代码、上Alpha" style="rounded=0;whiteSpace=wrap;html=1;fillColor=none;" parent="xb8STERn_sZ90LY28HoW-8" vertex="1">
          <mxGeometry x="35" y="1040" width="130" height="30" as="geometry" />
        </mxCell>
        <mxCell id="suGp4Ct0iNTHyCz29Ozv-65" style="edgeStyle=orthogonalEdgeStyle;rounded=0;orthogonalLoop=1;jettySize=auto;html=1;entryX=0.5;entryY=0;entryDx=0;entryDy=0;fontSize=10;startArrow=none;startFill=0;" parent="xb8STERn_sZ90LY28HoW-8" source="suGp4Ct0iNTHyCz29Ozv-61" target="suGp4Ct0iNTHyCz29Ozv-59" edge="1">
          <mxGeometry relative="1" as="geometry" />
        </mxCell>
        <mxCell id="mgWLIkfOWvnB-S61e3QX-36" style="edgeStyle=orthogonalEdgeStyle;rounded=0;orthogonalLoop=1;jettySize=auto;html=1;exitX=1;exitY=0.5;exitDx=0;exitDy=0;entryX=1;entryY=0.5;entryDx=0;entryDy=0;" edge="1" parent="xb8STERn_sZ90LY28HoW-8" source="suGp4Ct0iNTHyCz29Ozv-61" target="suGp4Ct0iNTHyCz29Ozv-26">
          <mxGeometry relative="1" as="geometry">
            <Array as="points">
              <mxPoint x="190" y="995" />
              <mxPoint x="190" y="885" />
            </Array>
          </mxGeometry>
        </mxCell>
        <mxCell id="suGp4Ct0iNTHyCz29Ozv-61" value="&lt;span style=&quot;font-size: 10px&quot;&gt;测试通过&lt;/span&gt;" style="rhombus;whiteSpace=wrap;html=1;strokeColor=#808080;fillColor=none;" parent="xb8STERn_sZ90LY28HoW-8" vertex="1">
          <mxGeometry x="40" y="975" width="120" height="40" as="geometry" />
        </mxCell>
        <mxCell id="suGp4Ct0iNTHyCz29Ozv-69" style="edgeStyle=orthogonalEdgeStyle;rounded=0;orthogonalLoop=1;jettySize=auto;html=1;fontSize=10;startArrow=none;startFill=0;" parent="xb8STERn_sZ90LY28HoW-8" source="suGp4Ct0iNTHyCz29Ozv-66" target="suGp4Ct0iNTHyCz29Ozv-68" edge="1">
          <mxGeometry relative="1" as="geometry" />
        </mxCell>
        <mxCell id="suGp4Ct0iNTHyCz29Ozv-66" value="线上环境验收" style="rounded=0;whiteSpace=wrap;html=1;fillColor=none;" parent="xb8STERn_sZ90LY28HoW-8" vertex="1">
          <mxGeometry x="35" y="1100" width="130" height="30" as="geometry" />
        </mxCell>
        <mxCell id="suGp4Ct0iNTHyCz29Ozv-68" value="正式发布" style="rounded=0;whiteSpace=wrap;html=1;fillColor=none;" parent="xb8STERn_sZ90LY28HoW-8" vertex="1">
          <mxGeometry x="35" y="1160" width="130" height="30" as="geometry" />
        </mxCell>
        <mxCell id="VbEyu0OW8QpNHMH-tm42-2" value="是" style="text;html=1;strokeColor=none;fillColor=none;align=center;verticalAlign=middle;whiteSpace=wrap;rounded=0;fontSize=10;" parent="xb8STERn_sZ90LY28HoW-8" vertex="1">
          <mxGeometry x="100" y="1015" width="25" height="20" as="geometry" />
        </mxCell>
        <mxCell id="VbEyu0OW8QpNHMH-tm42-3" value="否" style="text;html=1;strokeColor=none;fillColor=none;align=center;verticalAlign=middle;whiteSpace=wrap;rounded=0;fontSize=10;" parent="xb8STERn_sZ90LY28HoW-8" vertex="1">
          <mxGeometry x="160" y="995" width="25" height="20" as="geometry" />
        </mxCell>
        <mxCell id="mgWLIkfOWvnB-S61e3QX-12" style="edgeStyle=orthogonalEdgeStyle;rounded=0;orthogonalLoop=1;jettySize=auto;html=1;exitX=0.5;exitY=1;exitDx=0;exitDy=0;" edge="1" parent="xb8STERn_sZ90LY28HoW-8" source="mgWLIkfOWvnB-S61e3QX-8" target="mgWLIkfOWvnB-S61e3QX-11">
          <mxGeometry relative="1" as="geometry" />
        </mxCell>
        <mxCell id="mgWLIkfOWvnB-S61e3QX-8" value="制订测试方案" style="rounded=0;whiteSpace=wrap;html=1;fillColor=none;" vertex="1" parent="xb8STERn_sZ90LY28HoW-8">
          <mxGeometry x="35" y="210" width="130" height="30" as="geometry" />
        </mxCell>
        <mxCell id="mgWLIkfOWvnB-S61e3QX-14" style="edgeStyle=orthogonalEdgeStyle;rounded=0;orthogonalLoop=1;jettySize=auto;html=1;exitX=0.5;exitY=1;exitDx=0;exitDy=0;" edge="1" parent="xb8STERn_sZ90LY28HoW-8" source="mgWLIkfOWvnB-S61e3QX-11" target="mgWLIkfOWvnB-S61e3QX-13">
          <mxGeometry relative="1" as="geometry" />
        </mxCell>
        <mxCell id="mgWLIkfOWvnB-S61e3QX-11" value="测试方案/用例评审" style="rounded=0;whiteSpace=wrap;html=1;fillColor=none;" vertex="1" parent="xb8STERn_sZ90LY28HoW-8">
          <mxGeometry x="35" y="320" width="130" height="30" as="geometry" />
        </mxCell>
        <mxCell id="mgWLIkfOWvnB-S61e3QX-18" style="edgeStyle=orthogonalEdgeStyle;rounded=0;orthogonalLoop=1;jettySize=auto;html=1;exitX=0.5;exitY=1;exitDx=0;exitDy=0;" edge="1" parent="xb8STERn_sZ90LY28HoW-8" source="mgWLIkfOWvnB-S61e3QX-13" target="mgWLIkfOWvnB-S61e3QX-17">
          <mxGeometry relative="1" as="geometry" />
        </mxCell>
        <mxCell id="mgWLIkfOWvnB-S61e3QX-19" style="edgeStyle=orthogonalEdgeStyle;rounded=0;orthogonalLoop=1;jettySize=auto;html=1;exitX=1;exitY=0.5;exitDx=0;exitDy=0;entryX=1;entryY=0.5;entryDx=0;entryDy=0;" edge="1" parent="xb8STERn_sZ90LY28HoW-8" source="mgWLIkfOWvnB-S61e3QX-13" target="mgWLIkfOWvnB-S61e3QX-8">
          <mxGeometry relative="1" as="geometry">
            <Array as="points">
              <mxPoint x="190" y="410" />
              <mxPoint x="190" y="225" />
            </Array>
          </mxGeometry>
        </mxCell>
        <mxCell id="mgWLIkfOWvnB-S61e3QX-13" value="&lt;span style=&quot;font-size: 10px&quot;&gt;评审通过&lt;/span&gt;" style="rhombus;whiteSpace=wrap;html=1;strokeColor=#808080;fillColor=none;" vertex="1" parent="xb8STERn_sZ90LY28HoW-8">
          <mxGeometry x="40" y="390" width="120" height="40" as="geometry" />
        </mxCell>
        <mxCell id="mgWLIkfOWvnB-S61e3QX-21" style="edgeStyle=orthogonalEdgeStyle;rounded=0;orthogonalLoop=1;jettySize=auto;html=1;exitX=0.5;exitY=1;exitDx=0;exitDy=0;" edge="1" parent="xb8STERn_sZ90LY28HoW-8" source="mgWLIkfOWvnB-S61e3QX-17" target="mgWLIkfOWvnB-S61e3QX-26">
          <mxGeometry relative="1" as="geometry">
            <mxPoint x="100" y="530" as="targetPoint" />
          </mxGeometry>
        </mxCell>
        <mxCell id="mgWLIkfOWvnB-S61e3QX-17" value="冒烟测试用例开发" style="rounded=0;whiteSpace=wrap;html=1;fillColor=none;" vertex="1" parent="xb8STERn_sZ90LY28HoW-8">
          <mxGeometry x="35" y="470" width="130" height="30" as="geometry" />
        </mxCell>
        <mxCell id="mgWLIkfOWvnB-S61e3QX-26" value="全量测试用例开发" style="rounded=0;whiteSpace=wrap;html=1;fillColor=none;" vertex="1" parent="xb8STERn_sZ90LY28HoW-8">
          <mxGeometry x="35" y="535" width="130" height="30" as="geometry" />
        </mxCell>
        <mxCell id="mgWLIkfOWvnB-S61e3QX-31" style="edgeStyle=orthogonalEdgeStyle;rounded=0;orthogonalLoop=1;jettySize=auto;html=1;exitX=0;exitY=0.5;exitDx=0;exitDy=0;entryX=0;entryY=0.75;entryDx=0;entryDy=0;" edge="1" parent="xb8STERn_sZ90LY28HoW-1" source="suGp4Ct0iNTHyCz29Ozv-37" target="mgWLIkfOWvnB-S61e3QX-23">
          <mxGeometry relative="1" as="geometry" />
        </mxCell>
        <mxCell id="mgWLIkfOWvnB-S61e3QX-35" style="edgeStyle=orthogonalEdgeStyle;rounded=0;orthogonalLoop=1;jettySize=auto;html=1;exitX=0.5;exitY=1;exitDx=0;exitDy=0;entryX=0.5;entryY=0;entryDx=0;entryDy=0;" edge="1" parent="xb8STERn_sZ90LY28HoW-1" source="mgWLIkfOWvnB-S61e3QX-23" target="hg6zbWp4ZJsZ5r2ovLSt-36">
          <mxGeometry relative="1" as="geometry">
            <Array as="points">
              <mxPoint x="530" y="800" />
              <mxPoint x="730" y="800" />
            </Array>
          </mxGeometry>
        </mxCell>
        <mxCell id="hg6zbWp4ZJsZ5r2ovLSt-6" value="&lt;h1 style=&quot;font-size: 14px&quot;&gt;&lt;font style=&quot;font-size: 14px&quot;&gt;流程剪裁说明：&lt;/font&gt;&lt;/h1&gt;&lt;p style=&quot;margin: 0px ; color: rgb(51 , 51 , 51) ; font-family: &amp;#34;arial normal&amp;#34; , &amp;#34;arial&amp;#34; ; font-size: 10px&quot;&gt;&lt;br&gt;&lt;/p&gt;&lt;p style=&quot;font-size: 10px&quot;&gt;&lt;b&gt;UI流程：&lt;/b&gt;&lt;/p&gt;&lt;p style=&quot;margin: 0px ; color: rgb(51 , 51 , 51) ; font-family: &amp;#34;arial normal&amp;#34; , &amp;#34;arial&amp;#34;&quot;&gt;&lt;span style=&quot;font-family: &amp;#34;arial normal&amp;#34; , &amp;#34;arial&amp;#34;&quot;&gt;&lt;font style=&quot;font-size: 10px&quot;&gt;&amp;nbsp; &amp;nbsp; &amp;nbsp; &amp;nbsp;如里需求不涉及到UI设计，则不执行UI相关流程。&lt;/font&gt;&lt;/span&gt;&lt;br&gt;&lt;/p&gt;&lt;p style=&quot;margin: 0px ; color: rgb(51 , 51 , 51) ; font-family: &amp;#34;arial normal&amp;#34; , &amp;#34;arial&amp;#34;&quot;&gt;&lt;span style=&quot;font-family: &amp;#34;arial normal&amp;#34; , &amp;#34;arial&amp;#34;&quot;&gt;&lt;font style=&quot;font-size: 10px&quot;&gt;&lt;br&gt;&lt;/font&gt;&lt;/span&gt;&lt;/p&gt;&lt;p style=&quot;font-size: 10px&quot;&gt;&lt;b&gt;技术评审：&lt;/b&gt;&lt;/p&gt;&lt;p style=&quot;margin: 0px ; color: rgb(51 , 51 , 51) ; font-family: &amp;#34;arial normal&amp;#34; , &amp;#34;arial&amp;#34; ; font-size: 10px&quot;&gt;&lt;font style=&quot;font-size: 10px&quot;&gt;&amp;nbsp; &amp;nbsp; &amp;nbsp; &amp;nbsp;多个小需求的技术评审可一起进行。&lt;/font&gt;&lt;/p&gt;&lt;p style=&quot;margin: 0px ; color: rgb(51 , 51 , 51) ; font-family: &amp;#34;arial normal&amp;#34; , &amp;#34;arial&amp;#34; ; font-size: 10px&quot;&gt;&lt;font style=&quot;font-size: 10px&quot;&gt;&lt;br&gt;&lt;/font&gt;&lt;/p&gt;&lt;p style=&quot;font-size: 10px&quot;&gt;&lt;b&gt;产品验收：&lt;/b&gt;&lt;/p&gt;&lt;p style=&quot;margin: 0px ; color: rgb(51 , 51 , 51) ; font-family: &amp;#34;arial normal&amp;#34; , &amp;#34;arial&amp;#34; ; font-size: 10px&quot;&gt;&lt;/p&gt;&lt;p style=&quot;margin: 0px ; color: rgb(51 , 51 , 51) ; font-family: &amp;#34;arial normal&amp;#34; , &amp;#34;arial&amp;#34; ; font-size: 10px&quot;&gt;&amp;nbsp; &amp;nbsp; &amp;nbsp; &amp;nbsp;产品验收和UI测试的先后顺序如有调整，需要跟产品经理和测试工程师协调，并向小组负责人报备，不能擅自改变流程。&lt;/p&gt;" style="text;html=1;strokeColor=none;fillColor=none;spacing=5;spacingTop=-20;whiteSpace=wrap;overflow=hidden;rounded=0;fontSize=12;fontFamily=Helvetica;" parent="1" vertex="1">
          <mxGeometry x="900" y="230" width="270" height="280" as="geometry" />
        </mxCell>
        <mxCell id="mgWLIkfOWvnB-S61e3QX-16" value="否" style="text;html=1;strokeColor=none;fillColor=none;align=center;verticalAlign=middle;whiteSpace=wrap;rounded=0;fontSize=10;" vertex="1" parent="1">
          <mxGeometry x="835" y="410" width="25" height="20" as="geometry" />
        </mxCell>
        <mxCell id="mgWLIkfOWvnB-S61e3QX-27" value="测试环境和数据准备" style="rounded=0;whiteSpace=wrap;html=1;fillColor=none;" vertex="1" parent="1">
          <mxGeometry x="705" y="612" width="130" height="30" as="geometry" />
        </mxCell>
        <mxCell id="mgWLIkfOWvnB-S61e3QX-28" style="edgeStyle=orthogonalEdgeStyle;rounded=0;orthogonalLoop=1;jettySize=auto;html=1;exitX=0.5;exitY=1;exitDx=0;exitDy=0;entryX=0.5;entryY=0;entryDx=0;entryDy=0;" edge="1" parent="1" source="mgWLIkfOWvnB-S61e3QX-26" target="mgWLIkfOWvnB-S61e3QX-27">
          <mxGeometry relative="1" as="geometry" />
        </mxCell>
      </root>
    </mxGraphModel>
  </diagram>
</mxfile>
